<svg xmlns="http://www.w3.org/2000/svg" xmlns:xlink="http://www.w3.org/1999/xlink" width="40" height="40" viewBox="0 0 40 40">
  <defs>
    <clipPath id="clip-path">
      <rect id="Rectangle_10" data-name="Rectangle 10" width="40" height="40" transform="translate(1459 3050)" fill="#363636"/>
    </clipPath>
  </defs>
  <g id="Mask_Group_4" data-name="Mask Group 4" transform="translate(-1459 -3050)" clip-path="url(#clip-path)">
    <path id="facebook_1_" data-name="facebook (1)" d="M34.61,0H5.39A5.39,5.39,0,0,0,0,5.39V34.61A5.39,5.39,0,0,0,5.39,40H19.8l.025-14.294H16.112a.876.876,0,0,1-.876-.873l-.018-4.607a.876.876,0,0,1,.876-.88H19.8V14.894c0-5.166,3.155-7.98,7.764-7.98h3.782a.876.876,0,0,1,.876.876v3.885a.876.876,0,0,1-.876.876H29.027c-2.506,0-2.992,1.191-2.992,2.939v3.854h5.507a.876.876,0,0,1,.87.979l-.546,4.607a.876.876,0,0,1-.87.773H26.06L26.035,40H34.61A5.39,5.39,0,0,0,40,34.61V5.39A5.39,5.39,0,0,0,34.61,0Z" transform="translate(1459 3050)" fill="#475993"/>
  </g>
</svg>
