<svg xmlns="http://www.w3.org/2000/svg" xmlns:xlink="http://www.w3.org/1999/xlink" width="37.828" height="37.828" viewBox="0 0 37.828 37.828">
  <defs>
    <clipPath id="clip-path">
      <rect id="Rectangle_22" data-name="Rectangle 22" width="37.828" height="37.828" transform="translate(37.828 0) rotate(90)" fill="#ff2e63"/>
    </clipPath>
  </defs>
  <g id="Mask_Group_2" data-name="Mask Group 2" clip-path="url(#clip-path)">
    <g id="phone-receiver" transform="translate(0 0.012)">
      <g id="Group_24" data-name="Group 24" transform="translate(0 0)">
        <path id="Path_7" data-name="Path 7" d="M37.81,29.852a1.828,1.828,0,0,1-.561,1.6L31.923,36.74a3,3,0,0,1-.941.681,3.889,3.889,0,0,1-1.141.36q-.04,0-.241.02t-.52.02a18.462,18.462,0,0,1-2.463-.26,18.7,18.7,0,0,1-4.165-1.281,34.958,34.958,0,0,1-5.587-3.064,41.651,41.651,0,0,1-6.648-5.606,43.882,43.882,0,0,1-4.645-5.286A37.663,37.663,0,0,1,2.61,17.658,25.127,25.127,0,0,1,.928,13.774a20.609,20.609,0,0,1-.761-3,9.919,9.919,0,0,1-.16-1.982q.04-.721.04-.8a3.892,3.892,0,0,1,.36-1.141A3,3,0,0,1,1.088,5.9L6.414.579A1.764,1.764,0,0,1,7.7.018a1.494,1.494,0,0,1,.921.3,2.784,2.784,0,0,1,.681.741l4.285,8.129a1.949,1.949,0,0,1,.2,1.4,2.5,2.5,0,0,1-.681,1.281l-1.962,1.962a.668.668,0,0,0-.14.26.988.988,0,0,0-.06.3,7.231,7.231,0,0,0,.721,1.922,17.645,17.645,0,0,0,1.482,2.343,26.011,26.011,0,0,0,2.843,3.184,26.526,26.526,0,0,0,3.2,2.863,18.5,18.5,0,0,0,2.343,1.5,6.227,6.227,0,0,0,1.442.58l.5.1a.955.955,0,0,0,.26-.06.669.669,0,0,0,.26-.14l2.283-2.323a2.453,2.453,0,0,1,1.682-.641,2.092,2.092,0,0,1,1.081.24h.04l7.729,4.565A2.015,2.015,0,0,1,37.81,29.852Z" transform="translate(0 -0.018)" fill="#ff2e63"/>
      </g>
    </g>
  </g>
</svg>
