<svg xmlns="http://www.w3.org/2000/svg" xmlns:xlink="http://www.w3.org/1999/xlink" width="40" height="40" viewBox="0 0 40 40">
  <defs>
    <clipPath id="clip-path">
      <rect id="Rectangle_15" data-name="Rectangle 15" width="40" height="40" transform="translate(1696.485 3050)" fill="#363636"/>
    </clipPath>
  </defs>
  <g id="Mask_Group_7" data-name="Mask Group 7" transform="translate(-1696.485 -3050)" clip-path="url(#clip-path)">
    <path id="linkedin" d="M36.382,0H3.618A3.618,3.618,0,0,0,0,3.618V36.382A3.618,3.618,0,0,0,3.618,40H36.382A3.618,3.618,0,0,0,40,36.382V3.618A3.618,3.618,0,0,0,36.382,0Zm-24,34.539a1.053,1.053,0,0,1-1.053,1.053H6.842a1.053,1.053,0,0,1-1.053-1.053V15.749A1.053,1.053,0,0,1,6.842,14.7h4.482a1.053,1.053,0,0,1,1.053,1.053ZM9.084,12.925a4.258,4.258,0,1,1,4.258-4.258A4.258,4.258,0,0,1,9.084,12.925ZM35.8,34.623a.968.968,0,0,1-.968.968h-4.81a.968.968,0,0,1-.968-.968V25.81c0-1.315.386-5.761-3.436-5.761-2.964,0-3.566,3.044-3.686,4.409V34.623a.968.968,0,0,1-.968.968H16.314a.968.968,0,0,1-.968-.968V15.664a.968.968,0,0,1,.968-.968h4.652a.968.968,0,0,1,.968.968V17.3c1.1-1.65,2.733-2.923,6.211-2.923,7.7,0,7.658,7.2,7.658,11.149v9.094Z" transform="translate(1696.485 3050)" fill="#0077b7"/>
  </g>
</svg>
